<svg id="e3xYDsMJrTu1" xmlns="http://www.w3.org/2000/svg" xmlns:xlink="http://www.w3.org/1999/xlink" viewBox="0 0 300 300" shape-rendering="geometricPrecision" text-rendering="geometricPrecision" project-id="d64423d8fe7a4f72b648bb5ae0f12b11" export-id="83746810122b430e90659c7fb43f807e" cached="false"><defs><linearGradient id="e3xYDsMJrTu4-fill" x1="200" y1="99.98" x2="200" y2="164.64" spreadMethod="pad" gradientUnits="userSpaceOnUse" gradientTransform="translate(0 0)"><stop id="e3xYDsMJrTu4-fill-0" offset="9%" stop-color="#e1ab69"/><stop id="e3xYDsMJrTu4-fill-1" offset="100%" stop-color="#d9a260"/></linearGradient><linearGradient id="e3xYDsMJrTu5-fill" x1="16.15" y1="1.86" x2="16.15" y2="48.86" spreadMethod="pad" gradientUnits="userSpaceOnUse" gradientTransform="translate(0 0)"><stop id="e3xYDsMJrTu5-fill-0" offset="11%" stop-color="#d19952"/><stop id="e3xYDsMJrTu5-fill-1" offset="99%" stop-color="#ae7b3d"/></linearGradient><linearGradient id="e3xYDsMJrTu6-fill" x1="115.87" y1="110.28" x2="126.05" y2="141.58" spreadMethod="pad" gradientUnits="userSpaceOnUse" gradientTransform="translate(0 0)"><stop id="e3xYDsMJrTu6-fill-0" offset="4%" stop-color="#f2c58f"/><stop id="e3xYDsMJrTu6-fill-1" offset="48%" stop-color="#f2bc7b"/></linearGradient><linearGradient id="e3xYDsMJrTu7-fill" x1="16.16" y1="1.86" x2="16.16" y2="48.86" spreadMethod="pad" gradientUnits="userSpaceOnUse" gradientTransform="translate(0 0)"><stop id="e3xYDsMJrTu7-fill-0" offset="11%" stop-color="#d19952"/><stop id="e3xYDsMJrTu7-fill-1" offset="99%" stop-color="#ae7b3d"/></linearGradient><linearGradient id="e3xYDsMJrTu8-fill" x1="274.14" y1="116.52" x2="284.73" y2="149.09" spreadMethod="pad" gradientUnits="userSpaceOnUse" gradientTransform="translate(0 0)"><stop id="e3xYDsMJrTu8-fill-0" offset="4%" stop-color="#f2c58f"/><stop id="e3xYDsMJrTu8-fill-1" offset="48%" stop-color="#f2bc7b"/></linearGradient><linearGradient id="e3xYDsMJrTu9-fill" x1="173.2" y1="162.63" x2="232.62" y2="345.46" spreadMethod="pad" gradientUnits="userSpaceOnUse" gradientTransform="translate(0 0)"><stop id="e3xYDsMJrTu9-fill-0" offset="4%" stop-color="#f2c58f"/><stop id="e3xYDsMJrTu9-fill-1" offset="48%" stop-color="#f2bc7b"/></linearGradient></defs><g transform="translate(-49.999962 -75.259994)"><g><path d="M116.7,104h166.6c4.296775,0,7.78,3.483225,7.78,7.78v38.42h-182.16v-38.39c-.007977-2.068577.808177-4.055166,2.268075-5.520694s3.443332-2.289321,5.511925-2.289306Z" fill="url(#e3xYDsMJrTu4-fill)"/><rect width="32.31" height="46.83" rx="0" ry="0" transform="translate(108.97 127.12)" fill="url(#e3xYDsMJrTu5-fill)"/><path d="M111.62,106c-1.708509,1.464112-2.694294,3.599979-2.7,5.85v38.41l32.36-23.1Z" fill="url(#e3xYDsMJrTu6-fill)"/><rect width="32.31" height="46.83" rx="0" ry="0" transform="translate(258.72 127.12)" fill="url(#e3xYDsMJrTu7-fill)"/><path d="M288.38,106l-29.66,21.17l32.36,23.1v-38.46c-.017293-2.236029-1.002019-4.355014-2.7-5.81Z" fill="url(#e3xYDsMJrTu8-fill)"/><path d="M108.92,150.22h182.16v188.52c0,4.296775-3.483225,7.78-7.78,7.78h-166.6c-4.296775,0-7.78-3.483225-7.78-7.78v-188.52Z" fill="url(#e3xYDsMJrTu9-fill)"/></g><path d="M162.16,187.81v36c.104069,20.850322,16.989602,37.722468,37.84,37.81v0c20.862038-.087657,37.752343-16.977962,37.84-37.84v-36" transform="translate(-0.000038 -13.83)" fill="none" stroke="#ffe9cc" stroke-width="15" stroke-linecap="round" stroke-miterlimit="10"/></g></svg>
