<svg id="e2JqoBd9KzR1" xmlns="http://www.w3.org/2000/svg" xmlns:xlink="http://www.w3.org/1999/xlink" viewBox="0 0 300 300" shape-rendering="geometricPrecision" text-rendering="geometricPrecision" project-id="d64423d8fe7a4f72b648bb5ae0f12b11" export-id="987fb9f1600c4065a497cd2d8a4328c8" cached="false"><g transform="matrix(1.173712 0 0 2.065452 -85.059317 -504.438478)"><g><g><path d="M219.37,286.8v-32.8h37.57c9.388841,0,17,7.611159,17,17s-7.611159,17-17,17h-37.57v-1.2" fill="#789e21"/><path d="M181.09,286.8v-32.8h-37.58c-9.388841,0-17,7.611159-17,17s7.611159,17,17,17h37.57v-1.2" fill="#789e21"/></g><g><path d="M169.42,375h61.16v-103.859999c-19.019364,10.559308-47.050636,10.559309-66.07.000001Z" fill="#5c3ab5"/><path d="M169.42,310.87c19.019364,10.559308,42.140636,10.559308,61.16,0" fill="none" stroke="#8e7ffd" stroke-width="8.24112" stroke-linecap="round" stroke-miterlimit="10"/><path d="M105.49,375.27c-3.250637-.002649-6.366937-1.297187-8.66267-3.598547s-3.582638-5.420819-3.57733-8.671453v-25.2c.090639-26.44996,17.79624-49.598091,43.3-56.61.345476-.093892.701994-.14098,1.06-.14h26c10.267927.011023,18.588977,8.332073,18.6,18.6v71.25c.015577.229736.015577.460264,0,.69-.177034,2.075374-1.917103,3.667537-4,3.66Z" fill="#9fc943"/><path d="M222.33,375.27c-2.082897.007537-3.822966-1.584626-4-3.66-.015607-.229735-.015607-.460265,0-.69v-71.25c.011023-10.267927,8.332073-18.588977,18.6-18.6h26c.358006-.00098.714524.046108,1.06.14c25.50376,7.011909,43.209361,30.16004,43.3,56.61v25.18c.005339,3.259309-1.288424,6.386369-3.594982,8.689174s-5.435722,3.591473-8.695018,3.580826Z" fill="#9fc943"/><line x1="142.39" y1="343.8" x2="142.39" y2="362.86" fill="none" stroke="#789e21" stroke-width="8" stroke-linecap="round" stroke-miterlimit="10"/><line x1="258.07" y1="343.8" x2="258.07" y2="362.86" fill="none" stroke="#789e21" stroke-width="8" stroke-linecap="round" stroke-miterlimit="10"/><path d="M254.17,266.24c-.743634,4.862876-4.961114,8.431513-9.88,8.36h-4.37c-12.532075.005295-22.708515,10.128128-22.78,22.66v77.44c0,2.761424,2.238576,5,5,5h.52c2.761424,0,5-2.238576,5-5v-76.11c.033005-5.819728,4.760179-10.520094,10.58-10.52h18.71c9.361572.000079,16.961452-7.568508,17-16.93l-20.47-9.9c.675201,1.574361.913561,3.30161.69,5Z" fill="#789e21"/><path d="M174,279c-3.903001-2.873557-8.623275-4.422452-13.47-4.42h-4.37c-4.918886.071513-9.136366-3.497124-9.88-8.36-.226706-1.697491.008195-3.424707.68-5l-20.47,9.9c.038548,9.361492,7.638428,16.930079,17,16.93h18.71c5.819821-.000094,10.546995,4.700272,10.58,10.52v76.13c0,2.761424,2.238576,5,5,5h.52c2.761424,0,5-2.238576,5-5v-77.44c-.008739-7.221936-3.463923-14.005985-9.3-18.26Z" fill="#789e21"/><path d="M160.54,274.66h-4.67c-5.328233-.016471-9.643529-4.331767-9.66-9.66v0c-.001408-1.288388.25708-2.563822.76-3.75" fill="none" stroke="#9fc943" stroke-width="4" stroke-linecap="round" stroke-miterlimit="10"/><line x1="157.05" y1="285.85" x2="157.05" y2="332.55" fill="none" stroke="#fff" stroke-width="8" stroke-linecap="round" stroke-miterlimit="10"/><circle r="7.69" transform="translate(156.82 339.75)" fill="#5c3ab5"/><line x1="243.41" y1="285.85" x2="243.41" y2="332.55" fill="none" stroke="#fff" stroke-width="8" stroke-linecap="round" stroke-miterlimit="10"/><circle r="7.69" transform="translate(243.41 339.98)" fill="#5c3ab5"/><path d="M239.92,274.66h4.67c5.328233-.016471,9.643529-4.331767,9.66-9.66v0c.001408-1.288388-.25708-2.563822-.76-3.75" fill="none" stroke="#9fc943" stroke-width="4" stroke-linecap="round" stroke-miterlimit="10"/></g></g></g></svg>
