<svg id="eIBDF45SqQR1" xmlns="http://www.w3.org/2000/svg" xmlns:xlink="http://www.w3.org/1999/xlink" viewBox="0 0 300 300" shape-rendering="geometricPrecision" text-rendering="geometricPrecision" project-id="d64423d8fe7a4f72b648bb5ae0f12b11" export-id="88cef4ae368648bab6452811b89034c9" cached="false"><g transform="matrix(0.809666 0 0 0.921965 -11.9332 -51.001229)"><g><polygon points="149.6,166.7 127.4,166.7 110.3,286 115.5,286" clip-rule="evenodd" fill="#976b4e" fill-rule="evenodd"/><polygon points="75.8,166.7 53.6,166.7 30.1,286 35.2,286" clip-rule="evenodd" fill="#976b4e" fill-rule="evenodd"/><polygon points="259.6,166.7 237.5,166.7 271.1,286 276.2,286" clip-rule="evenodd" fill="#976b4e" fill-rule="evenodd"/><polygon points="345.8,166.7 323.7,166.7 369.9,286 375,286" clip-rule="evenodd" fill="#976b4e" fill-rule="evenodd"/><g><polygon points="127.4,166.7 122.3,166.7 105.2,286 110.3,286" clip-rule="evenodd" fill="#e1b47b" fill-rule="evenodd"/><polygon points="53.6,166.7 48.5,166.7 25,286 30.1,286" clip-rule="evenodd" fill="#e1b47b" fill-rule="evenodd"/><polygon points="237.5,166.7 232.3,166.7 265.9,286 271.1,286" clip-rule="evenodd" fill="#b59174" fill-rule="evenodd"/><polygon points="323.7,166.7 318.5,166.7 364.8,286 369.9,286" clip-rule="evenodd" fill="#b59174" fill-rule="evenodd"/></g></g><g><g><polygon points="149.6,166.7 127.4,166.7 125.8,178 146.3,178" clip-rule="evenodd" fill="#875e42" fill-rule="evenodd"/><polygon points="75.8,166.7 53.6,166.7 51.4,178 71.9,178" clip-rule="evenodd" fill="#875e42" fill-rule="evenodd"/><polygon points="259.6,166.7 237.5,166.7 240.7,178 261.2,178" clip-rule="evenodd" fill="#875e42" fill-rule="evenodd"/><polygon points="345.8,166.7 323.7,166.7 328,178 348.6,178" clip-rule="evenodd" fill="#875e42" fill-rule="evenodd"/></g><g><polygon points="127.4,166.7 122.3,166.7 120.7,178 125.8,178" clip-rule="evenodd" fill="#bd9766" fill-rule="evenodd"/><polygon points="53.6,166.7 48.5,166.7 46.3,178 51.4,178" clip-rule="evenodd" fill="#bd9766" fill-rule="evenodd"/></g><g><polygon points="237.5,166.7 232.3,166.7 235.5,178 240.7,178" clip-rule="evenodd" fill="#a78467" fill-rule="evenodd"/><polygon points="323.7,166.7 318.5,166.7 322.9,178 328,178" clip-rule="evenodd" fill="#a78467" fill-rule="evenodd"/></g></g><g><polygon points="370.6,114 105.5,114 116.9,166.7 359.2,166.7" clip-rule="evenodd" fill="#976b4e" fill-rule="evenodd"/><polygon points="198.5,120.9 114,120.9 122.4,159.8 198.5,159.8" clip-rule="evenodd" fill="#6b4c38" fill-rule="evenodd"/><polygon points="198.5,120.9 145.8,120.9 145.8,159.8 198.5,159.8" clip-rule="evenodd" fill="#976b4e" fill-rule="evenodd"/><polygon points="362.1,120.9 205.3,120.9 205.3,159.8 353.7,159.8" clip-rule="evenodd" fill="#6b4c38" fill-rule="evenodd"/><polygon points="362.1,120.9 317.7,120.9 317.8,121 309.4,159.8 353.7,159.8 362.1,121" clip-rule="evenodd" fill="#976b4e" fill-rule="evenodd"/><polygon points="105.5,114 27.3,114 38.7,166.7 116.9,166.7" clip-rule="evenodd" fill="#cea974" fill-rule="evenodd"/><polygon points="198.5,120.9 145.8,120.9 145.8,159.8 158.2,159.8" clip-rule="evenodd" fill="#73523c" fill-rule="evenodd"/><polygon points="362.1,120.9 317.8,120.9 309.4,159.8 321.8,159.8" clip-rule="evenodd" fill="#73523c" fill-rule="evenodd"/></g></g><g transform="matrix(0.787847 0 0 0.876424 -11.387725 -3.270114)"><g><path d="M360.6,173.9h-120.1c-7.9,0-14.4,6.5-14.4,14.4v95.9h134.5c7.9,0,14.4-6.5,14.4-14.4v-81.5c0-7.9-6.5-14.4-14.4-14.4v0Z" clip-rule="evenodd" fill="#71b1dd" fill-rule="evenodd"/><path d="M331.1,173.9h29c8.2,0,14.8,6.7,14.8,14.8v81.1c0,7.9-6.5,14.4-14.4,14.4h-29.5c-.2,0-.4-.2-.4-.4v-109.5c.1-.2.3-.4.5-.4v0Z" clip-rule="evenodd" fill="#99cbee" fill-rule="evenodd"/><path d="M57.8,208.6c-.1-.9,12.4-3,10.7-14.9l-9.9-66.8c-.9-6.4-6.4-11.1-12.9-11.1c54.9,0,109.9,0,164.8,0c6.5,0,11.9,4.7,12.9,11.1l12.3,81.7c-58.4,0-119.6,0-177.9,0v0Z" clip-rule="evenodd" fill="#99cbee" fill-rule="evenodd"/><path d="M55.6,208.6h-5.4c-6.5,0-11.9-4.7-12.9-11.1l-9.9-66.8c-.6-3.9.5-7.4,3-10.4c2.6-3,5.9-4.5,9.8-4.5h5.4c6.5,0,11.9,4.7,12.9,11.1l9.9,66.8c.6,3.9-.5,7.4-3,10.4-2.6,3-5.9,4.5-9.8,4.5v0Z" clip-rule="evenodd" fill="#71b1dd" fill-rule="evenodd"/><path d="M192.6,173.9h-153.2c-7.9,0-14.4,6.5-14.4,14.4v81.5c0,7.9,6.5,14.4,14.4,14.4h153.2v-110.3Z" clip-rule="evenodd" fill="#71b1dd" fill-rule="evenodd"/><path d="M192.6,173.9h-29.9c-7.9,0-14.4,6.5-14.4,14.4v95.9h44.3v-110.3Z" clip-rule="evenodd" fill="#99cbee" fill-rule="evenodd"/><path d="M310.6,246.4h-118v-37.8h103.4c8,0,14.6,6.6,14.6,14.6v23.2Z" clip-rule="evenodd" fill="#cce9fb" fill-rule="evenodd"/><polygon points="310.6,246.4 192.6,246.4 192.6,284.2 246.6,284.2" clip-rule="evenodd" fill="#5699c6" fill-rule="evenodd"/><path d="M192.6,215.1v-6.5h103.4c5,0,9.5,2.6,12.1,6.5h-115.5v0Z" clip-rule="evenodd" fill="#e2f2fc" fill-rule="evenodd"/></g><g><path d="M226.1,269.8v14.4h134.5v0c.1,0,.2,0,.4,0v0c.1,0,.2,0,.4,0v0c.1,0,.2,0,.4,0v0c.1,0,.2,0,.4,0c.1,0,.2,0,.4,0v0c.1,0,.2,0,.4-.1.1,0,.2,0,.4-.1.1,0,.2,0,.4-.1v0c.1,0,.2,0,.3-.1v0c.1,0,.2-.1.3-.1s.2-.1.3-.1v0c.1,0,.2-.1.3-.1v0c.1,0,.2-.1.3-.1s.2-.1.3-.1v0c.1,0,.2-.1.3-.1v0c.1,0,.2-.1.3-.1s.2-.1.3-.1.2-.1.3-.1c.1-.1.2-.1.3-.2v0c.1-.1.2-.1.3-.2s.2-.1.3-.2.2-.1.3-.2v0c.1-.1.2-.1.3-.2v0c.1-.1.2-.1.3-.2.2-.1.4-.3.6-.4v0c.1-.1.2-.1.3-.2v0c.3-.2.5-.4.8-.7.2-.2.3-.3.5-.5v0c.1-.1.2-.2.2-.2.1-.1.2-.2.2-.3v0c.1-.1.2-.2.2-.3.1-.1.1-.2.2-.3.2-.3.4-.5.6-.8v0c.1-.1.1-.2.2-.3v0c.3-.4.5-.8.7-1.2v0c.1-.2.2-.4.3-.6v0c.1-.2.2-.4.3-.6v0c0-.1.1-.2.1-.3v0c0-.1.1-.2.1-.3v0c0-.1.1-.2.1-.3v0c0-.1.1-.2.1-.3v0c0-.1.1-.2.1-.3v0c.1-.2.1-.5.2-.7v0c0-.1.1-.2.1-.3v0c0-.1,0-.2.1-.4v0c0-.1,0-.2.1-.4v0c0-.1,0-.2,0-.4v0c0-.1,0-.2,0-.4v0c0-.1,0-.2,0-.4v0c0-.1,0-.2,0-.4v0c0-.1,0-.2,0-.4v0c0-.1,0-.2,0-.4v0l-148.6.2v0Zm147.2,6.8c.1-.2.2-.4.3-.6l-.3.6Zm0,0c.1-.2.2-.4.3-.6l-.3.6Zm.5-1.6c.1-.2.1-.5.2-.7l-.2.7Z" clip-rule="evenodd" fill="#5e1617" fill-rule="evenodd"/><path d="M375,269.8c0,.1,0,.2,0,.4v0c0,.1,0,.2,0,.4v0c0,.1,0,.2,0,.4v0c0,.1,0,.2,0,.4v0c0,.1,0,.2,0,.4v0c0,.1,0,.2,0,.4v0c0,.1,0,.2-.1.4v0c0,.1,0,.2-.1.4v0c0,.1,0,.2-.1.3v0c-.1.2-.1.5-.2.7v0c0,.1-.1.2-.1.3v0c0,.1-.1.2-.1.3v0c0,.1-.1.2-.1.3v0c0,.1-.1.2-.1.3v0c0,.1-.1.2-.1.3v0c-.1.2-.2.4-.3.6v0c-.1.2-.2.4-.3.6v0c-.2.4-.5.8-.7,1.2v0c-.1.1-.1.2-.2.3v0c-.2.3-.4.6-.6.8v0c-.1.1-.1.2-.2.3v0c-.2.2-.3.3-.5.5v0c-.2.3-.5.5-.7.7v0c-.5.5-1.1.9-1.6,1.3v0c-.3.2-.6.4-.9.6v0c-.1.1-.2.1-.3.2v0c-.1.1-.2.1-.3.2v0c-.1.1-.2.1-.3.2v0c-.1,0-.2.1-.3.1v0c-.1,0-.2.1-.3.1v0c-.1,0-.2.1-.3.1v0c-.1,0-.2.1-.3.1v0c-.1,0-.2.1-.3.1v0c-.1,0-.2.1-.3.1v0c-.1,0-.2.1-.3.1v0c-.1,0-.2.1-.3.1v0c-.1,0-.2.1-.3.1v0c-.1,0-.2.1-.3.1v0c-.1,0-.2,0-.4.1v0c-.1,0-.2,0-.4.1v0c-.1,0-.2,0-.4.1v0c-.1,0-.2,0-.4,0v0c-.1,0-.2,0-.4,0v0c-.1,0-.2,0-.4,0v0c-.1,0-.2,0-.4,0v0c-.1,0-.2,0-.4,0v0h-29.5c-.2,0-.4-.2-.4-.4v-14l44-.1v0Z" clip-rule="evenodd" fill="#802d2d" fill-rule="evenodd"/><path d="M25,269.8c0,.1,0,.2,0,.4c0,.1,0,.2,0,.4c0,.1,0,.2,0,.4c0,.1,0,.2,0,.4c0,.1,0,.2,0,.4c0,.1,0,.2.1.4c0,.1,0,.2.1.4c0,.1,0,.2.1.4c0,.1.1.2.1.3s.1.2.1.3v0c0,.1.1.2.1.3s.1.2.1.3.1.2.1.3.1.2.1.3.1.2.1.3.1.2.1.3.1.2.1.3v0c0,.1.1.2.1.3.1.1.1.2.2.3v0c.1.1.1.2.2.3v0c.1.1.1.2.2.3v0c.1.1.1.2.2.3v0c.1.1.1.2.2.3v0c.1.1.1.2.2.3s.1.2.2.3.1.2.2.3v0c.1.1.1.2.2.3v0c.1.1.1.2.2.3s.1.2.2.3.2.2.2.3v0c.1.1.2.2.2.3.1.1.2.2.2.2v0c.1.1.2.2.2.2v0c.1.1.2.2.3.2.1.1.2.2.3.2v0c.1.1.2.2.3.2v0c.1.1.2.1.3.2v0c.1.1.2.1.3.2v0c.1.1.2.1.3.2v0c.1.1.2.1.3.2s.2.1.3.2v0c.1.1.2.1.3.2s.2.1.3.2.2.1.3.2.2.1.3.2v0c.1.1.2.1.3.2.1,0,.2.1.3.1s.2.1.3.1.2.1.3.1.2.1.3.1.2.1.3.1.2.1.3.1.2.1.3.1.2.1.3.1v0c.1,0,.2.1.3.1s.2.1.4.1.2,0,.4.1v0c.1,0,.2,0,.4.1v0c.1,0,.2,0,.4.1.1,0,.2,0,.4,0v0c.1,0,.2,0,.4,0c.1,0,.2,0,.4,0v0c.1,0,.2,0,.4,0v0c.1,0,.2,0,.4,0v0h153.2v-14.4h-167.7v0Z" clip-rule="evenodd" fill="#5e1617" fill-rule="evenodd"/><polygon points="148.3,269.8 148.3,284.2 192.6,284.2 192.6,269.8" clip-rule="evenodd" fill="#802d2d" fill-rule="evenodd"/><polygon points="192.6,269.8 192.6,284.2 246.6,284.2 271,269.8" clip-rule="evenodd" fill="#471213" fill-rule="evenodd"/></g></g></svg>
