<svg id="eKOc5fJITFv1" xmlns="http://www.w3.org/2000/svg" xmlns:xlink="http://www.w3.org/1999/xlink" viewBox="0 0 300 300" shape-rendering="geometricPrecision" text-rendering="geometricPrecision" project-id="d64423d8fe7a4f72b648bb5ae0f12b11" export-id="007fdf1bcf2a4ddda41ce345a6cf54d7" cached="false"><defs><linearGradient id="eKOc5fJITFv3-fill" x1="-0.78" y1="6.34" x2="9.66" y2="6.34" spreadMethod="pad" gradientUnits="userSpaceOnUse" gradientTransform="translate(0 0)"><stop id="eKOc5fJITFv3-fill-0" offset="4%" stop-color="#0e0e0e"/><stop id="eKOc5fJITFv3-fill-1" offset="43%" stop-color="#0d0e0e"/><stop id="eKOc5fJITFv3-fill-2" offset="45%" stop-color="#f7f7f7"/><stop id="eKOc5fJITFv3-fill-3" offset="99%" stop-color="#6e6f6f"/></linearGradient><linearGradient id="eKOc5fJITFv4-fill" x1="-0.78" y1="11.27" x2="9.66" y2="11.27" spreadMethod="pad" gradientUnits="userSpaceOnUse" gradientTransform="translate(0 0)"><stop id="eKOc5fJITFv4-fill-0" offset="4%" stop-color="#1b1a1a"/><stop id="eKOc5fJITFv4-fill-1" offset="43%" stop-color="#111112"/><stop id="eKOc5fJITFv4-fill-2" offset="45%" stop-color="#f7f7f7"/></linearGradient><linearGradient id="eKOc5fJITFv5-fill" x1="-0.78" y1="11.27" x2="9.66" y2="11.27" spreadMethod="pad" gradientUnits="userSpaceOnUse" gradientTransform="translate(0 0)"><stop id="eKOc5fJITFv5-fill-0" offset="4%" stop-color="#040404"/><stop id="eKOc5fJITFv5-fill-1" offset="21%" stop-color="#000"/><stop id="eKOc5fJITFv5-fill-2" offset="100%" stop-color="#f7f7f7"/></linearGradient><linearGradient id="eKOc5fJITFv6-fill" x1="6.104127" y1="119.607483" x2="279.802136" y2="12.366058" spreadMethod="pad" gradientUnits="userSpaceOnUse" gradientTransform="translate(0 0)"><stop id="eKOc5fJITFv6-fill-0" offset="21%" stop-color="#0a51fa"/><stop id="eKOc5fJITFv6-fill-1" offset="82%" stop-color="#1858e8"/><stop id="eKOc5fJITFv6-fill-2" offset="100%" stop-color="#fff"/></linearGradient><linearGradient id="eKOc5fJITFv7-fill" x1="6.104127" y1="119.607483" x2="279.802136" y2="12.366058" spreadMethod="pad" gradientUnits="userSpaceOnUse" gradientTransform="translate(0 0)"><stop id="eKOc5fJITFv7-fill-0" offset="11.9249%" stop-color="#1858e8"/><stop id="eKOc5fJITFv7-fill-1" offset="25.5972%" stop-color="#0a51fa"/><stop id="eKOc5fJITFv7-fill-2" offset="100%" stop-color="#d8d8d8"/></linearGradient><linearGradient id="eKOc5fJITFv8-fill" x1="113.47" y1="203.25" x2="293.47" y2="203.25" spreadMethod="pad" gradientUnits="userSpaceOnUse" gradientTransform="translate(0 0)"><stop id="eKOc5fJITFv8-fill-0" offset="2%" stop-color="#efefef"/><stop id="eKOc5fJITFv8-fill-1" offset="9.245%" stop-color="#d8dbe6"/><stop id="eKOc5fJITFv8-fill-2" offset="11%" stop-color="#f7f7f7"/><stop id="eKOc5fJITFv8-fill-3" offset="88.7891%" stop-color="#efefef"/><stop id="eKOc5fJITFv8-fill-4" offset="92.2933%" stop-color="rgba(73,74,77,0.33)"/><stop id="eKOc5fJITFv8-fill-5" offset="100%" stop-color="#efefef"/></linearGradient><linearGradient id="eKOc5fJITFv9-fill" x1="201.8" y1="359.17" x2="201.8" y2="342.16" spreadMethod="pad" gradientUnits="userSpaceOnUse" gradientTransform="translate(0 0)"><stop id="eKOc5fJITFv9-fill-0" offset="16%" stop-color="rgba(216,219,230,0)"/><stop id="eKOc5fJITFv9-fill-1" offset="32%" stop-color="rgba(216,219,230,0.7)"/><stop id="eKOc5fJITFv9-fill-2" offset="52%" stop-color="rgba(216,219,230,0)"/></linearGradient><linearGradient id="eKOc5fJITFv10-fill" x1="0" y1="-5.26" x2="0" y2="3.01" spreadMethod="pad" gradientUnits="userSpaceOnUse" gradientTransform="translate(0 0)"><stop id="eKOc5fJITFv10-fill-0" offset="20%" stop-color="#000"/><stop id="eKOc5fJITFv10-fill-1" offset="100%" stop-color="#ededed"/></linearGradient><linearGradient id="eKOc5fJITFv11-fill" x1="9.56" y1="-2.64" x2="9.56" y2="3.53" spreadMethod="pad" gradientUnits="userSpaceOnUse" gradientTransform="translate(0 0)"><stop id="eKOc5fJITFv11-fill-0" offset="100%" stop-color="#000"/><stop id="eKOc5fJITFv11-fill-1" offset="100%" stop-color="#ededed"/></linearGradient></defs><g transform="matrix(0.985189 0 0 0.863061 -45.629456 -25.434413)"><rect width="8.7" height="12.68" rx="1.47" ry="1.47" transform="translate(123.2 92.42)" fill="url(#eKOc5fJITFv3-fill)"/><rect width="8.7" height="22.55" rx="1.97" ry="1.97" transform="translate(123.2 115.27)" fill="url(#eKOc5fJITFv4-fill)"/><rect width="8.7" height="22.55" rx="1.97" ry="1.97" transform="translate(123.2 144.044666)" fill="url(#eKOc5fJITFv5-fill)"/><rect width="286.5" height="132" rx="12.27" ry="12.27" transform="matrix(0 1 -1 0 267.86 60)" fill="url(#eKOc5fJITFv6-fill)"/><rect width="286.5" height="132" rx="12.27" ry="12.27" transform="matrix(0 1 -1 0 267.86 60)" fill="url(#eKOc5fJITFv7-fill)"/><path d="M255.53,51h-107.46c-11.733417.032959-21.237041,9.536583-21.27,21.27v262c.032959,11.733417,9.536583,21.237041,21.27,21.27h107.46c11.733417-.032959,21.237041-9.536583,21.27-21.27v-262c-.032959-11.733417-9.536583-21.237041-21.27-21.27ZM267.8,334.23c0,6.776534-5.493466,12.27-12.27,12.27h-107.46c-6.776534,0-12.27-5.493466-12.27-12.27v-262c.022041-6.760908,5.509056-12.230036,12.27-12.23h15.73c.552285,0,1,.447715,1,1v1.11c.010996,4.629107,3.760893,8.379004,8.39,8.39h57.23c4.629107-.010996,8.379004-3.760893,8.39-8.39v-1.11c0-.552285.447715-1,1-1h15.73c6.772628.00552,12.260002,5.497369,12.26,12.27Z" fill="url(#eKOc5fJITFv8-fill)"/><path d="M255.53,351h-107.46c-11.733417-.032959-21.237041-9.536583-21.27-21.27v4.5c.032959,11.733417,9.536583,21.237041,21.27,21.27h107.46c11.733417-.032959,21.237041-9.536583,21.27-21.27v-4.5c-.032959,11.733417-9.536583,21.237041-21.27,21.27Z" fill="url(#eKOc5fJITFv9-fill)"/><circle r="1.72" transform="translate(217.71 62.59)" fill="url(#eKOc5fJITFv10-fill)"/><rect width="19.13" height="2.56" rx="1.28" ry="1.28" transform="translate(192.24 61.31)" fill="url(#eKOc5fJITFv11-fill)"/></g></svg>
