<svg id="ej1qA6swpuN1" xmlns="http://www.w3.org/2000/svg" xmlns:xlink="http://www.w3.org/1999/xlink" viewBox="0 0 300 300" shape-rendering="geometricPrecision" text-rendering="geometricPrecision" project-id="d64423d8fe7a4f72b648bb5ae0f12b11" export-id="022d1bb6e02446c08aa52c378c5787fd" cached="false"><defs><linearGradient id="ej1qA6swpuN7-fill" x1="200" y1="309.68" x2="200" y2="293.58" spreadMethod="pad" gradientUnits="userSpaceOnUse" gradientTransform="translate(0 0)"><stop id="ej1qA6swpuN7-fill-0" offset="3%" stop-color="#b8b8ba"/><stop id="ej1qA6swpuN7-fill-1" offset="100%" stop-color="#9d9d9e"/></linearGradient><linearGradient id="ej1qA6swpuN8-fill" x1="200" y1="324.67" x2="200" y2="293.62" spreadMethod="pad" gradientUnits="userSpaceOnUse" gradientTransform="translate(0 0)"><stop id="ej1qA6swpuN8-fill-0" offset="14%" stop-color="#e1e1e3"/><stop id="ej1qA6swpuN8-fill-1" offset="38%" stop-color="#cfcfd1"/><stop id="ej1qA6swpuN8-fill-2" offset="100%" stop-color="#bbbbbc"/></linearGradient><linearGradient id="ej1qA6swpuN9-fill" x1="177.05" y1="212.65" x2="149.35" y2="-25.39" spreadMethod="pad" gradientUnits="userSpaceOnUse" gradientTransform="translate(0 0)"><stop id="ej1qA6swpuN9-fill-0" offset="2%" stop-color="#efefef"/><stop id="ej1qA6swpuN9-fill-1" offset="9%" stop-color="#e4e4e6"/><stop id="ej1qA6swpuN9-fill-2" offset="90%" stop-color="#f7f7f7"/><stop id="ej1qA6swpuN9-fill-3" offset="99%" stop-color="#e4e4e6"/></linearGradient><linearGradient id="ej1qA6swpuN10-fill" x1="-12.455582" y1="316.744615" x2="172.51" y2="0" spreadMethod="pad" gradientUnits="userSpaceOnUse" gradientTransform="translate(0 0)"><stop id="ej1qA6swpuN10-fill-0" offset="0%" stop-color="#05f"/><stop id="ej1qA6swpuN10-fill-1" offset="74.7514%" stop-color="#73a5d7"/><stop id="ej1qA6swpuN10-fill-2" offset="100%" stop-color="#8bbaf3"/></linearGradient></defs><g transform="matrix(0.787089 0 0 0.96733 -7.4178 -57.975957)"><path d="M115.24,307.33l-.58,1c-.199013.327876-.205383.737685-.016655,1.071588s.543109.539808.926655.538412h3.43c1.40764-.000773,2.811544-.144849,4.19-.43v0c.532002-.12642.888001-.627449.832338-1.171425s-.505757-.962522-1.052338-.978575Z"/><path d="M284.76,307.33h-7.68c-.546581.016053-.996676.434599-1.052338.978575s.300336,1.045005.832338,1.171425v0c1.378456.285151,2.78236.429227,4.19.43h3.39c.383546.001396.737927-.204509.926655-.538412s.182358-.743712-.016655-1.071588Z" fill="#040404"/><path d="M102.46,321.54l-.67,1.11c-.228616.37054-.242436.834832-.036263,1.218313s.601086.628025,1.036263.641687h3.9c1.619127.000562,3.23411-.163617,4.82-.49v0c.642732-.115357,1.088371-.706004,1.022876-1.355713s-.620052-1.13953-1.272876-1.124287Z"/><path d="M297.54,321.54h-8.84c-.652824-.015243-1.207381.474577-1.272876,1.124287s.380144,1.240356,1.022876,1.355713v0c1.58589.326383,3.200873.490562,4.82.49h3.9c.435177-.013662.83009-.258205,1.036263-.641687s.192353-.847773-.036263-1.218313Z"/><path d="M285.79,307.36l-.9-1.57c-.39804-.69163-1.090609-1.163167-1.88-1.28l-79.92-11.59h-6.17L117,304.51c-.789391.116833-1.48196.58837-1.88,1.28l-.9,1.57c-.202047.331225-.194268.749427.019958,1.072908s.59623.493853.980042.437092l84.83-7l84.83,7c.368194.018649.716785-.166798.907076-.482557s.191416-.710606.002924-1.027443Z" fill="url(#ej1qA6swpuN7-fill)"/><path d="M298.21,321.17l-1.86-3.07c-.757868-1.255431-1.99784-2.144741-3.43-2.46L210.85,297.7c-1.97994-.43327-3.698365-1.653496-4.76-3.38l-.9-1.46c-.214767-.349014-.590411-.566887-1-.58h-3.09c-.443994.002695-.85085.248344-1.06.64-.20915-.391656-.616006-.637305-1.06-.64h-3.09c-.409589.013113-.785233.230986-1,.58l-.9,1.46c-1.061635,1.726504-2.78006,2.94673-4.76,3.38l-82.07,17.94c-1.43216.315259-2.672132,1.204569-3.43,2.46l-1.86,3.07c-.228616.37054-.242436.834832-.036263,1.218313s.601086.628025,1.036263.641687h3.9c1.619127.000562,3.23411-.163617,4.82-.49L200,304.31l88.45,18.22c1.58589.326383,3.200873.490562,4.82.49h3.9c.439165-.001707.843523-.239321,1.058732-.622145s.208055-.851774-.018732-1.227855Z" fill="url(#ej1qA6swpuN8-fill)"/><rect width="326.5" height="188.09" rx="2.73" ry="2.73" transform="translate(36.75 105.49)" fill="url(#ej1qA6swpuN9-fill)" stroke="#e6e6e6" stroke-miterlimit="10"/><rect width="172.51" height="310.93" rx="1.42" ry="1.42" transform="matrix(0 1 -1 0 355.46 113.27)" fill="url(#ej1qA6swpuN10-fill)"/></g></svg>
